<?xml version="1.0" standalone="no"?>
<!DOCTYPE svg PUBLIC "-//W3C//DTD SVG 20010904//EN"
 "http://www.w3.org/TR/2001/REC-SVG-20010904/DTD/svg10.dtd">
<svg version="1.0" xmlns="http://www.w3.org/2000/svg"
 width="460.000000pt" height="460.000000pt" viewBox="0 0 460.000000 460.000000"
 preserveAspectRatio="xMidYMid meet">
<metadata>
Created by potrace 1.14, written by Peter Selinger 2001-2017
</metadata>
<g transform="translate(0.000000,460.000000) scale(0.100000,-0.100000)"
fill="#000000" stroke="none">
<path d="M2061 4200 c-17 -12 -41 -17 -80 -17 -31 0 -46 2 -33 4 12 3 22 9 22
14 0 13 -41 11 -96 -6 -27 -8 -65 -17 -85 -20 -19 -3 -51 -16 -69 -30 -19 -14
-41 -25 -50 -25 -30 0 -88 -49 -95 -80 -4 -17 -20 -45 -37 -63 -16 -18 -36
-44 -44 -60 -12 -21 -20 -26 -38 -21 -27 6 -84 -19 -93 -42 -5 -15 -59 -48
-78 -49 -5 0 -19 -22 -30 -50 -11 -27 -28 -61 -37 -75 -24 -37 -32 -88 -17
-106 19 -23 -18 -138 -53 -162 -16 -12 -19 -21 -13 -49 4 -25 1 -45 -14 -74
-24 -45 -26 -70 -10 -86 11 -11 14 -25 18 -78 1 -17 3 -18 11 -5 8 12 10 11
10 -7 0 -13 4 -23 10 -23 5 0 9 -3 8 -7 -1 -5 4 -21 11 -38 9 -22 10 -40 2
-72 -9 -34 -8 -50 5 -84 14 -34 21 -40 41 -36 13 2 26 0 29 -4 3 -5 1 -9 -4
-9 -13 0 -36 -184 -27 -207 8 -21 36 88 37 147 1 19 3 26 5 15 5 -27 73 -60
73 -35 0 5 -5 9 -12 7 -6 -1 -14 6 -16 17 -4 18 -3 18 27 0 17 -10 34 -27 37
-37 6 -20 -11 -47 -30 -47 -21 0 -64 -53 -74 -90 -16 -63 16 -101 68 -82 18 7
29 3 49 -16 21 -20 32 -23 64 -18 33 6 38 4 37 -11 -5 -42 0 -78 9 -64 6 9 10
10 16 2 4 -7 1 -18 -5 -26 -11 -14 -7 -19 12 -16 6 0 21 -53 33 -119 3 -14 -8
3 -25 38 -16 35 -35 62 -44 62 -33 0 -46 -13 -46 -44 0 -24 3 -27 10 -16 8 13
10 13 10 -1 0 -9 11 -21 24 -27 24 -10 56 -62 56 -89 0 -8 4 -11 10 -8 5 3 12
-5 16 -19 3 -13 12 -27 20 -30 12 -4 12 -2 4 15 -6 11 -10 25 -7 32 2 6 14
-11 26 -37 13 -26 41 -64 62 -83 22 -20 39 -40 39 -45 0 -5 7 -16 15 -24 8 -8
12 -21 9 -28 -3 -7 2 -16 10 -19 9 -4 16 -13 16 -22 0 -8 7 -15 15 -15 9 0 15
-9 15 -25 0 -18 4 -23 15 -19 11 5 15 -1 15 -25 0 -17 -4 -31 -10 -31 -5 0
-10 -4 -10 -10 0 -21 20 -9 26 15 6 25 28 33 39 15 4 -6 -1 -7 -11 -3 -12 4
-15 2 -12 -8 2 -7 -4 -22 -13 -33 -20 -21 -15 -41 7 -32 8 3 13 0 11 -7 -1 -8
11 -12 35 -12 20 0 39 -3 43 -7 3 -3 -1 -5 -11 -5 -9 1 -19 -4 -22 -12 -3 -10
1 -12 17 -8 11 3 19 1 15 -4 -3 -5 4 -9 15 -9 13 0 21 -7 22 -17 1 -10 5 -4 9
12 l8 30 1 -27 c1 -30 10 -35 29 -16 8 8 16 5 31 -13 12 -15 15 -26 9 -30 -6
-4 0 -10 12 -14 16 -5 19 -9 10 -15 -9 -6 -6 -10 11 -15 31 -10 94 -78 96
-104 2 -20 -28 -38 -46 -26 -5 3 -12 1 -16 -5 -3 -5 2 -10 12 -10 17 -1 17 -1
0 -14 -13 -10 -26 -11 -57 -3 -22 6 -40 15 -40 19 0 4 -7 8 -15 8 -9 0 -12 6
-9 15 4 8 1 15 -5 15 -6 0 -18 14 -26 31 -18 34 -55 74 -55 59 0 -5 -10 -10
-22 -9 -13 0 -17 3 -10 6 6 2 12 9 12 14 0 4 -6 6 -12 4 -18 -7 -75 40 -60 49
7 4 12 2 12 -3 0 -6 5 -11 11 -11 8 0 9 4 0 13 -6 8 -7 17 -3 21 4 4 -5 5 -21
1 -23 -6 -26 -5 -20 10 5 15 2 17 -15 13 -15 -4 -22 -2 -22 8 0 8 5 14 11 14
5 0 7 5 4 10 -4 6 -11 8 -16 5 -5 -4 -9 -1 -9 4 0 6 -5 11 -11 11 -8 0 -8 -4
0 -14 19 -23 4 -26 -86 -14 -7 1 -13 13 -13 27 0 24 -1 24 -15 5 -8 -10 -15
-40 -15 -65 0 -48 -17 -68 -39 -46 -8 8 -11 7 -11 -4 0 -7 13 -28 30 -46 29
-31 73 -127 62 -137 -3 -4 0 -6 6 -6 11 0 24 -19 76 -103 10 -16 20 -27 22
-24 5 5 -9 34 -28 61 -45 63 -80 126 -85 150 -6 28 -5 29 9 16 44 -44 110
-135 124 -170 9 -22 22 -40 30 -40 7 0 39 -24 71 -54 56 -51 63 -54 178 -83
l120 -30 56 56 c54 54 133 141 173 192 61 77 173 199 182 199 18 0 -25 -144
-63 -210 -54 -92 -212 -281 -213 -254 -2 29 -35 -58 -35 -91 l0 -40 -46 3
c-42 2 -50 -1 -86 -35 -32 -30 -100 -73 -117 -73 -2 0 -1 12 2 26 3 16 -1 30
-9 36 -11 7 -9 8 6 7 11 -1 31 2 44 8 l25 10 -24 6 c-30 8 -80 -18 -80 -42 0
-15 -10 -20 -47 -26 -27 -4 -55 -13 -63 -20 -12 -11 -30 -10 -102 5 -93 20
-147 44 -197 85 -17 15 -31 22 -31 15 0 -6 -5 -8 -11 -4 -8 4 -7 9 2 14 10 7
10 12 -1 25 -9 11 -15 13 -20 5 -5 -8 -9 -7 -13 4 -4 9 -3 16 2 16 4 0 6 11 3
25 -3 21 -7 23 -18 14 -21 -18 -30 -2 -11 19 25 27 32 78 15 104 -8 13 -18 46
-21 73 -4 28 -14 86 -22 130 -20 107 -18 151 6 205 29 64 92 144 133 170 21
12 36 30 36 41 0 18 -25 27 -32 11 -1 -4 -20 -21 -40 -36 -21 -16 -35 -33 -31
-39 3 -6 1 -7 -5 -3 -14 9 -75 -73 -67 -91 2 -8 1 -12 -4 -9 -16 10 -56 -96
-56 -150 0 -28 -3 -50 -7 -47 -5 2 -8 -6 -7 -19 0 -13 3 -17 6 -10 8 20 26 14
20 -8 -3 -11 -1 -18 3 -15 5 3 11 1 15 -5 3 -5 0 -10 -7 -10 -10 0 -10 -2 1
-9 9 -6 12 -22 9 -49 -2 -22 0 -38 4 -36 5 3 8 -2 8 -11 0 -9 -4 -14 -9 -11
-10 6 -25 -24 -16 -32 3 -3 5 0 5 6 0 7 7 12 16 12 19 0 14 -20 -9 -34 -13 -8
-20 -8 -26 3 -6 9 -11 10 -15 2 -4 -6 -12 -11 -18 -11 -5 0 -1 8 11 18 21 16
21 19 7 57 -8 22 -15 36 -15 30 -2 -22 -41 52 -41 78 0 34 -13 35 -36 0 -10
-16 -19 -23 -22 -15 -5 17 -27 15 -42 -3 -7 -8 -25 -15 -41 -15 -18 0 -29 -5
-29 -14 0 -15 -45 -28 -108 -31 -23 -1 -45 -5 -48 -8 -6 -6 74 -98 114 -130
21 -17 22 -44 1 -31 -5 3 -7 10 -4 15 4 5 1 9 -4 9 -6 0 -11 -4 -11 -10 0 -5
-7 -7 -15 -4 -10 4 -13 13 -10 25 8 24 -71 106 -102 105 -13 0 -23 -4 -23 -8
0 -4 -9 -8 -20 -8 -11 0 -20 -5 -20 -12 0 -6 -6 -3 -14 8 -11 14 -18 16 -26 7
-15 -14 25 -86 73 -129 18 -16 32 -35 29 -42 -2 -6 2 -12 10 -12 18 -1 58 -35
58 -50 0 -7 7 -10 18 -5 14 5 15 4 5 -6 -10 -10 -20 -6 -48 21 l-34 33 -61
-52 c-33 -29 -84 -67 -113 -84 -29 -18 -68 -44 -88 -59 -20 -16 -40 -28 -45
-28 -5 0 -24 -14 -43 -30 -18 -17 -40 -30 -47 -30 -7 0 -19 -9 -27 -20 -7 -10
-23 -23 -35 -27 -31 -12 -153 -134 -145 -146 4 -7 0 -8 -11 -4 -14 6 -17 3
-12 -9 4 -10 1 -14 -6 -12 -25 9 -113 -110 -168 -227 -36 -74 -110 -327 -110
-372 0 -11 212 -13 1085 -13 1078 0 1085 0 1085 20 0 11 -1 22 -2 23 -2 2 3
11 11 20 7 10 9 17 4 17 -6 0 -8 12 -5 26 3 19 7 22 13 12 6 -9 9 -6 9 10 0
13 -4 20 -10 17 -5 -3 -10 -2 -10 2 0 5 9 14 20 21 12 7 20 8 20 2 0 -18 18
-11 23 9 3 12 -1 22 -9 25 -8 3 -14 1 -14 -4 0 -6 -4 -10 -10 -10 -5 0 -10 9
-10 20 0 11 -4 20 -9 20 -10 0 -2 48 10 56 5 3 9 10 9 15 0 6 -5 7 -12 3 -7
-5 -8 -3 -3 5 5 9 10 10 18 2 14 -14 57 -14 57 -1 0 6 5 10 11 10 6 0 9 -6 6
-12 -2 -7 3 -18 12 -25 13 -10 10 -11 -16 -3 -20 5 -33 5 -33 -1 0 -5 4 -9 8
-9 5 0 17 -16 28 -35 12 -23 22 -31 28 -25 6 6 20 10 32 10 12 0 24 6 27 13 3
6 4 2 4 -10 -1 -17 -6 -22 -19 -17 -13 4 -18 0 -18 -15 0 -10 -3 -28 -6 -38
-5 -15 -4 -15 5 -3 8 11 11 12 11 2 0 -7 4 -11 9 -7 5 3 13 0 17 -6 5 -9 0
-10 -14 -7 -12 4 -22 1 -22 -4 0 -6 -9 0 -20 12 l-21 24 -6 -22 c-3 -12 -13
-22 -22 -22 -14 0 -14 2 -1 11 13 9 12 10 -3 5 -9 -3 -17 -1 -17 5 0 6 -8 9
-17 7 -18 -3 -38 -78 -21 -78 4 0 8 14 8 31 0 26 3 30 18 24 9 -4 25 -10 35
-12 11 -4 17 -15 16 -32 0 -24 -1 -24 -10 -6 -7 15 -8 10 -3 -19 5 -33 3 -38
-11 -32 -9 3 -13 2 -10 -3 3 -5 -3 -12 -12 -14 -10 -3 469 -5 1065 -6 976 -1
1082 1 1082 15 0 8 -5 24 -11 36 -13 25 -57 140 -71 188 -6 19 -13 37 -17 40
-3 3 -12 28 -19 55 -20 78 -121 238 -150 240 -4 1 -29 22 -57 48 -27 26 -53
47 -57 47 -4 0 -24 16 -45 36 -114 108 -146 134 -163 134 -10 0 -28 14 -40 30
-12 17 -26 30 -32 30 -20 0 -174 128 -170 142 1 5 -2 7 -8 3 -12 -7 -83 39
-73 48 9 10 35 9 29 -1 -3 -5 1 -9 9 -9 8 0 12 4 9 9 -3 4 3 8 13 8 10 0 41
12 68 25 28 14 60 25 72 25 12 0 25 5 28 10 4 6 9 8 13 6 4 -2 8 6 8 18 1 15
-10 30 -34 47 -30 20 -52 25 -136 30 -56 4 -105 3 -111 -1 -5 -4 -34 -13 -62
-20 -29 -6 -53 -16 -53 -21 0 -5 -8 -9 -17 -9 -10 -1 -36 -7 -58 -15 -28 -10
-41 -11 -46 -3 -4 6 -14 8 -23 5 -17 -7 -56 11 -56 26 0 4 17 4 39 1 29 -5 39
-2 44 10 5 13 2 14 -20 5 -45 -17 -37 -2 10 19 40 18 45 23 50 62 4 35 1 49
-18 74 -12 17 -25 40 -29 51 -5 16 -15 20 -51 20 -25 0 -45 -3 -45 -7 0 -16
-18 -7 -58 30 -37 34 -39 39 -24 50 15 11 14 12 -5 7 -18 -5 -22 -3 -17 9 4
11 2 15 -8 11 -9 -4 -20 4 -28 20 -7 14 -23 25 -34 26 -20 0 -20 1 2 9 30 13
28 15 -10 14 -18 -1 -39 3 -46 9 -24 19 -23 -2 3 -41 29 -44 32 -60 21 -115
-4 -24 -11 -35 -18 -31 -7 5 -9 2 -5 -9 3 -9 2 -19 -3 -22 -6 -4 -10 -1 -10 4
0 15 -27 14 -36 -1 -4 -6 2 -18 12 -26 15 -12 15 -13 2 -9 -14 5 -16 -1 -13
-43 2 -27 0 -52 -6 -55 -5 -4 -9 1 -9 9 0 9 -7 16 -15 16 -18 0 -20 16 -2 27
22 14 14 57 -15 76 -16 11 -28 24 -28 29 0 6 11 3 25 -6 24 -16 25 -16 25 10
0 18 -4 24 -13 21 -15 -5 -18 34 -4 44 18 13 -16 98 -58 146 -25 28 -41 53
-38 57 3 3 2 6 -3 6 -5 0 -11 9 -12 20 -1 11 -2 27 -3 35 -1 8 -15 20 -31 27
-17 8 -31 24 -35 38 -4 14 -21 40 -39 59 l-32 35 -7 -57 c-4 -31 -11 -57 -15
-57 -13 0 -19 42 -9 62 6 12 6 18 -1 18 -5 0 -10 5 -10 10 0 10 43 63 68 84 7
6 22 18 32 28 10 9 21 14 24 11 3 -3 4 3 4 13 -1 11 13 51 30 89 40 92 64 163
59 178 -2 7 2 26 10 44 7 18 13 46 13 63 0 21 4 29 12 24 6 -4 8 -3 5 3 -4 6
-4 25 -1 41 5 25 11 30 33 29 25 -2 26 0 25 48 0 28 -4 70 -8 95 -7 44 -7 44
9 20 l16 -25 -6 28 c-6 30 3 77 15 77 5 0 7 -8 5 -17 -1 -10 0 -12 2 -5 3 7 8
10 13 7 4 -3 6 5 4 17 -2 13 -2 18 2 11 10 -22 75 62 77 101 2 19 6 38 10 42
14 15 6 40 -21 64 -23 20 -27 32 -26 65 3 48 14 86 23 81 4 -3 7 4 8 14 1 11
8 34 16 52 26 59 27 68 11 146 -9 42 -13 89 -10 105 7 35 -26 168 -53 211 -11
17 -31 55 -46 84 -15 29 -43 65 -62 80 -20 15 -72 60 -117 101 -97 88 -166
136 -232 160 -27 10 -48 23 -46 30 5 23 -20 53 -56 68 -22 9 -66 15 -114 15
-43 -1 -80 3 -83 8 -11 17 -139 10 -164 -10z m353 -29 c3 -5 0 -11 -7 -14 -8
-3 -14 1 -14 9 0 16 13 19 21 5z m-1184 -526 c0 -8 -4 -15 -10 -15 -5 0 -7 7
-4 15 4 8 8 15 10 15 2 0 4 -7 4 -15z m607 -267 c-3 -7 -5 -2 -5 12 0 14 2 19
5 13 2 -7 2 -19 0 -25z m-49 -26 c2 -7 -3 -12 -12 -12 -9 0 -16 7 -16 16 0 17
22 14 28 -4z m201 3 c46 5 51 4 51 -15 0 -22 35 -29 43 -7 3 9 8 9 21 -2 11
-10 20 -11 24 -4 4 5 19 13 34 16 14 4 34 10 44 14 11 4 15 3 10 -5 -9 -15 13
-27 27 -13 17 17 24 13 31 -14 7 -28 36 -34 36 -7 0 12 5 10 18 -10 12 -20 22
-26 36 -22 10 4 22 0 27 -7 6 -10 9 -10 9 -2 0 10 7 10 28 2 15 -6 43 -11 62
-10 25 0 44 -7 63 -25 15 -13 27 -28 27 -32 0 -9 -58 -42 -75 -42 -8 0 -17 -5
-21 -12 -5 -7 -3 -8 6 -3 9 5 11 4 6 -4 -4 -6 -11 -9 -16 -6 -5 3 -52 -4 -105
-15 -97 -20 -97 -20 -140 0 -24 11 -62 20 -85 20 -23 0 -39 4 -36 9 7 11 -17
21 -49 21 -13 0 -27 5 -31 11 -4 7 -24 9 -53 5 -25 -3 -40 -3 -33 0 6 3 12 10
12 15 0 14 -28 11 -33 -3 -3 -10 -10 -10 -31 1 -20 11 -29 12 -38 3 -7 -7 -26
-12 -42 -12 -17 0 -40 -7 -50 -15 -11 -8 -27 -15 -35 -15 -18 0 48 59 67 60 6
0 12 7 12 15 0 16 5 17 60 17 31 -1 32 0 10 7 -16 5 -24 14 -22 24 2 13 -5 17
-27 17 -30 0 -30 1 -13 20 14 17 18 18 20 5 2 -9 14 -15 32 -15 22 0 29 6 34
26 5 20 10 23 21 14 8 -7 32 -9 64 -5z m-229 -26 c0 -5 -7 -9 -15 -9 -15 0
-20 12 -9 23 8 8 24 -1 24 -14z m8 -42 c-7 -8 -20 -12 -30 -9 -29 7 -21 22 12
22 25 0 29 -2 18 -13z m-98 -215 c0 -4 -11 -9 -25 -10 -14 -1 -25 3 -25 8 0 6
11 10 25 10 14 0 25 -4 25 -8z m1255 -12 c-3 -5 -13 -10 -21 -10 -8 0 -14 5
-14 10 0 6 9 10 21 10 11 0 17 -4 14 -10z m-1185 -33 c0 -8 -3 -8 -9 1 -11 18
-22 -14 -31 -88 l-7 -55 1 66 c1 39 7 73 15 83 14 17 31 13 31 -7z m1114 -2
c3 -8 1 -15 -4 -15 -6 0 -10 7 -10 15 0 8 2 15 4 15 2 0 6 -7 10 -15z m-1217
-47 c-3 -8 -6 -5 -6 6 -1 11 2 17 5 13 3 -3 4 -12 1 -19z m1363 12 c0 -5 -4
-10 -10 -10 -5 0 -10 5 -10 10 0 6 5 10 10 10 6 0 10 -4 10 -10z m-74 -47
l-16 -28 6 30 c8 38 17 52 21 38 3 -7 -3 -24 -11 -40z m-57 -5 c-1 -25 -4 -33
-6 -20 -4 20 -7 21 -21 10 -12 -10 -12 -6 3 20 11 17 21 32 22 32 2 0 2 -19 2
-42z m-1219 -15 c-1 -24 -2 -26 -11 -10 -5 9 -7 22 -4 27 10 17 15 11 15 -17z
m240 7 c0 -23 0 -23 -37 -9 -26 10 -27 12 -8 19 33 14 45 11 45 -10z m439 1
c12 -10 33 -47 47 -82 37 -91 60 -134 99 -185 41 -53 41 -54 16 -82 -19 -22
-37 -30 -26 -12 4 6 -10 10 -35 10 -27 0 -43 -5 -46 -15 -4 -8 -13 -15 -20
-15 -8 0 -17 -7 -20 -15 -7 -18 -41 -19 -77 -2 -27 12 -36 27 -16 27 8 0 8 5
-1 15 -14 17 -85 21 -95 5 -3 -5 2 -10 11 -10 10 0 15 -3 11 -6 -3 -4 -21 -4
-39 0 -23 4 -39 16 -52 38 -11 17 -14 28 -7 24 6 -4 11 -2 11 5 0 7 11 27 25
45 25 32 80 139 105 202 13 33 53 72 75 72 6 0 22 -9 34 -19z m467 -180 c1 -1
7 0 13 4 8 4 8 12 1 25 -8 15 -7 18 4 14 12 -5 22 14 32 64 7 35 16 22 9 -13
-10 -60 -42 -113 -78 -132 -42 -23 -238 -26 -259 -4 -11 12 -10 13 7 6 35 -14
159 -19 151 -6 -4 6 -16 11 -27 11 -20 0 -26 15 -9 25 6 4 8 10 5 15 -3 4 4 6
15 3 13 -4 20 0 20 10 0 8 10 17 23 21 41 10 67 43 68 89 1 28 5 14 12 -43 5
-47 11 -87 13 -89z m-1241 102 l-5 -38 15 30 14 30 2 -30 c1 -30 1 -30 9 -5 4
14 9 18 9 10 1 -13 2 -13 11 0 8 12 10 11 10 -7 0 -13 5 -23 10 -23 6 0 10 -8
10 -17 1 -17 2 -17 14 0 14 17 15 17 21 -5 13 -41 57 -90 99 -109 32 -14 66
-19 156 -19 112 -1 114 -1 75 -15 -22 -8 -51 -15 -65 -16 l-25 -1 25 -7 25 -7
-25 -7 c-20 -6 -22 -9 -11 -16 12 -8 10 -16 -13 -45 -15 -20 -35 -36 -44 -37
-14 0 -13 -2 3 -9 18 -8 17 -9 -7 -9 -18 -1 -33 -10 -44 -26 -9 -14 -22 -25
-28 -24 -25 3 -36 -2 -36 -16 0 -8 -4 -15 -10 -15 -5 0 -10 -9 -10 -20 0 -20
14 -27 23 -12 2 4 2 1 1 -5 -2 -7 3 -13 11 -13 8 0 15 -6 15 -14 0 -8 -9 -14
-19 -13 -11 0 -17 5 -14 10 3 5 0 7 -8 5 -8 -3 -22 2 -32 10 -16 15 -18 14
-24 -7 -7 -28 -22 -9 -24 29 0 23 -1 23 -9 5 -8 -18 -9 -18 -9 -2 -1 10 -5 15
-11 12 -5 -3 -10 0 -11 7 -1 7 -5 2 -9 -12 -8 -25 -8 -25 -10 5 -1 17 -1 36 0
44 1 9 -4 12 -14 8 -11 -4 -16 -1 -16 12 0 10 -7 24 -16 31 -8 8 -14 25 -13
39 2 25 -2 42 -21 86 -21 47 -26 92 -16 135 6 25 14 50 17 55 4 6 10 25 14 43
9 44 17 41 10 -5z m102 15 c-3 -8 -6 -5 -6 6 -1 11 2 17 5 13 3 -3 4 -12 1
-19z m50 -20 c-3 -8 -6 -5 -6 6 -1 11 2 17 5 13 3 -3 4 -12 1 -19z m39 -35
c-3 -4 -6 -1 -6 6 0 7 -4 9 -10 6 -5 -3 -10 -11 -10 -16 0 -6 5 -7 10 -4 6 3
10 0 10 -7 0 -11 2 -11 9 0 6 10 17 11 54 1 26 -6 44 -15 41 -20 -3 -5 11 -9
30 -9 19 0 46 -4 61 -10 21 -8 30 -6 47 10 12 11 31 20 41 20 19 0 19 -1 4
-18 -16 -18 -16 -19 13 -19 16 0 30 4 30 9 0 4 5 7 11 5 6 -1 14 4 17 12 3 9
0 11 -9 6 -8 -5 -11 -4 -6 1 10 11 58 14 51 2 -3 -4 -10 -5 -16 -2 -7 5 -9 1
-5 -9 8 -20 -39 -61 -89 -77 -41 -14 -184 -7 -230 10 -53 20 -97 97 -73 126
11 14 13 14 22 -1 5 -9 6 -19 3 -22z m794 -67 c0 -2 -7 -7 -16 -10 -8 -3 -12
-2 -9 4 6 10 25 14 25 6z m-1139 -47 c-5 -13 -10 -19 -10 -12 -1 15 10 45 15
40 3 -2 0 -15 -5 -28z m1443 -79 c-7 -44 -45 -204 -49 -208 -6 -7 -45 33 -45
46 0 7 -7 15 -16 19 -10 4 -14 13 -10 29 3 12 2 26 -4 29 -5 3 -10 1 -10 -4 0
-6 -4 -11 -8 -11 -12 0 -9 94 3 102 6 5 5 8 -3 8 -8 0 -10 5 -6 12 5 8 2 9
-11 4 -10 -3 -34 -3 -54 1 -31 6 -24 8 57 19 64 8 102 18 120 31 l27 20 7 -31
c4 -17 5 -47 2 -66z m-1431 10 c3 -11 1 -20 -4 -20 -5 0 -9 9 -9 20 0 11 2 20
4 20 2 0 6 -9 9 -20z m597 0 c-12 -8 -12 -10 -1 -10 8 0 12 -3 8 -6 -9 -9 -28
6 -22 17 4 5 12 9 18 9 7 0 6 -4 -3 -10z m-30 -40 c-6 -11 -15 -20 -19 -20 -5
0 -11 9 -14 20 -4 16 0 20 19 20 22 0 23 -3 14 -20z m-565 -9 c3 -11 15 -23
26 -26 21 -7 47 -45 29 -45 -5 0 -10 6 -10 13 0 8 -11 19 -24 25 -26 11 -54
52 -37 52 5 0 12 -9 16 -19z m645 0 c0 -11 12 -23 30 -31 25 -10 29 -17 24
-34 -9 -28 -19 -34 -65 -34 -26 -1 -39 4 -39 13 0 7 4 15 10 17 6 2 4 15 -5
32 -19 35 -19 47 -1 40 8 -3 17 -1 21 5 10 17 25 13 25 -8z m-662 -30 c31 -27
27 -35 -7 -15 -17 10 -28 21 -25 26 7 11 8 11 32 -11z m1079 -24 c0 -7 -11
-13 -25 -13 -22 0 -22 1 -6 13 10 7 21 13 24 13 4 0 7 -6 7 -13z m-1027 -1 c0
-3 -4 -8 -10 -11 -5 -3 -10 -1 -10 4 0 6 5 11 10 11 6 0 10 -2 10 -4z m1075
-56 c3 -5 1 -10 -4 -10 -6 0 -11 5 -11 10 0 6 2 10 4 10 3 0 8 -4 11 -10z
m-1015 -15 c0 -8 -2 -15 -4 -15 -2 0 -6 7 -10 15 -3 8 -1 15 4 15 6 0 10 -7
10 -15z m548 -47 c6 -6 33 -11 59 -10 46 2 45 -13 -2 -18 -55 -6 -83 0 -88 20
-6 22 12 27 31 8z m445 -25 c-7 -2 -21 -2 -30 0 -10 3 -4 5 12 5 17 0 24 -2
18 -5z m-903 -12 c0 -5 -7 -11 -15 -15 -15 -5 -20 5 -8 17 9 10 23 9 23 -2z
m37 -28 c1 -24 1 -25 -7 -8 -5 12 -9 14 -9 6 -1 -8 -3 -12 -6 -9 -7 7 5 38 14
38 4 0 7 -12 8 -27z m1065 -8 c-3 -18 -10 -25 -26 -24 -15 1 -16 3 -5 6 10 2
19 13 22 24 7 28 15 23 9 -6z m-862 5 c0 -5 -4 -10 -10 -10 -5 0 -10 5 -10 10
0 6 5 10 10 10 6 0 10 -4 10 -10z m-138 -47 c-2 -24 -8 -43 -14 -43 -5 0 -6
16 -2 38 12 67 23 71 16 5z m-25 15 c-3 -8 -6 -5 -6 6 -1 11 2 17 5 13 3 -3 4
-12 1 -19z m385 -8 c21 0 55 -6 75 -14 21 -7 58 -20 83 -27 l45 -14 -37 -3
c-21 -2 -38 -7 -38 -13 0 -5 -12 -9 -27 -9 -42 0 -55 -13 -48 -46 5 -22 4 -26
-4 -14 -7 9 -14 11 -18 5 -15 -19 -36 -16 -64 11 -15 14 -32 23 -37 20 -5 -3
-9 2 -8 12 0 10 -5 16 -14 14 -12 -3 -12 -1 -3 9 10 10 9 15 -5 25 -16 12 -16
13 2 14 11 0 17 3 13 6 -3 3 2 14 11 25 11 12 20 15 26 9 6 -6 27 -10 48 -10z
m377 11 c10 -7 5 -13 -23 -26 -31 -15 -43 -16 -82 -6 -25 6 -67 9 -93 5 -36
-5 -56 -2 -77 10 l-29 17 50 -6 c71 -9 198 -6 210 6 11 11 26 11 44 0z m-603
-12 c3 -6 0 -15 -7 -20 -22 -14 -28 -11 -22 11 6 22 18 26 29 9z m-92 -5 c9
-3 13 -10 10 -15 -3 -5 -11 -6 -17 -3 -8 5 -8 3 1 -7 16 -18 15 -29 -3 -29
-11 0 -15 9 -13 30 1 17 3 30 4 30 1 0 9 -3 18 -6z m766 -29 c0 -13 6 -25 13
-28 6 -2 9 -8 4 -12 -4 -5 -13 -3 -19 3 -19 19 -30 14 -23 -10 4 -16 3 -19 -3
-10 -6 9 -20 11 -46 7 -24 -5 -36 -3 -36 4 0 6 -7 11 -15 11 -25 0 -17 15 18
29 59 26 76 29 81 18 2 -7 5 -4 5 6 1 27 21 10 21 -18z m160 25 c8 -5 12 -11
9 -14 -3 -3 -14 1 -25 9 -21 16 -8 20 16 5z m-1025 -30 c-4 -12 -9 -19 -12
-17 -3 3 -2 15 2 27 4 12 9 19 12 17 3 -3 2 -15 -2 -27z m672 -16 c-3 -3 -12
-4 -19 -1 -8 3 -5 6 6 6 11 1 17 -2 13 -5z m-557 -30 c0 -8 -4 -12 -10 -9 -5
3 -7 0 -4 -9 3 -8 1 -22 -4 -32 -7 -13 -9 -9 -8 17 0 19 6 37 11 41 14 11 15
10 15 -8z m60 9 c0 -5 -14 -16 -30 -25 -35 -20 -41 -8 -7 15 25 18 37 21 37
10z m-140 -13 c0 -5 -4 -10 -10 -10 -5 0 -10 5 -10 10 0 6 5 10 10 10 6 0 10
-4 10 -10z m-43 -62 c-3 -7 -5 -2 -5 12 0 14 2 19 5 13 2 -7 2 -19 0 -25z
m173 17 c0 -8 -2 -15 -4 -15 -2 0 -6 7 -10 15 -3 8 -1 15 4 15 6 0 10 -7 10
-15z m-126 -11 c3 -8 2 -12 -4 -9 -6 3 -10 10 -10 16 0 14 7 11 14 -7z m490
-77 c17 -27 -10 -38 -46 -20 l-30 15 24 13 c28 16 38 14 52 -8z m74 -23 c12
-4 22 -14 21 -23 0 -10 -2 -11 -6 -3 -2 6 -9 10 -14 6 -5 -3 -9 1 -9 8 -1 10
-4 9 -13 -2 -11 -14 -47 -24 -47 -13 0 8 25 32 35 32 6 1 20 -2 33 -5z m-471
-115 c0 -21 -3 -26 -9 -16 -4 9 -5 22 -2 31 9 23 11 20 11 -15z m783 -44 c-7
-9 -15 -13 -17 -11 -6 6 20 36 26 30 2 -2 -2 -10 -9 -19z m190 -163 c0 -3 -7
3 -15 14 -8 10 -14 26 -15 34 0 8 7 2 15 -14 8 -15 15 -31 15 -34z m-850 17
c0 -6 -25 -19 -35 -19 -1 0 -2 11 -2 24 0 22 2 23 18 13 11 -7 19 -15 19 -18z
m57 -51 c-3 -8 -6 -5 -6 6 -1 11 2 17 5 13 3 -3 4 -12 1 -19z m812 -38 c1 -13
0 -13 -9 0 -5 8 -9 26 -9 40 l1 25 8 -25 c4 -14 8 -32 9 -40z m-654 -40 c8
-13 -5 -13 -25 0 -13 8 -13 10 2 10 9 0 20 -4 23 -10z m592 -92 c-3 -7 -5 -2
-5 12 0 14 2 19 5 13 2 -7 2 -19 0 -25z m34 -67 c0 -3 2 -14 4 -23 4 -24 -6
-23 -34 3 -17 16 -20 24 -10 29 13 8 38 3 40 -9z m-164 -129 c8 -5 9 -13 3
-22 -7 -10 -10 -11 -10 -2 0 6 -3 11 -7 11 -17 -3 -24 2 -18 11 7 12 16 12 32
2z m177 -37 c3 -9 0 -15 -9 -15 -9 0 -12 6 -9 15 4 8 7 15 9 15 2 0 5 -7 9
-15z m124 -7 c-7 -19 -38 -22 -38 -4 0 10 9 16 21 16 12 0 19 -5 17 -12z m26
-69 c-8 -17 -9 -13 -9 21 0 34 1 38 9 21 5 -13 5 -29 0 -42z m-1850 -25 c3 -8
2 -12 -4 -9 -6 3 -10 10 -10 16 0 14 7 11 14 -7z m2218 -8 c4 3 8 1 8 -4 0
-12 -44 -24 -48 -14 -1 4 -17 6 -35 4 -24 -3 -34 0 -34 10 0 12 10 13 50 7 28
-5 54 -6 59 -3z m-1825 -18 c-3 -8 -6 -5 -6 6 -1 11 2 17 5 13 3 -3 4 -12 1
-19z m-400 -4 c-3 -3 -12 -4 -19 -1 -8 3 -5 6 6 6 11 1 17 -2 13 -5z m2138
-11 c26 -5 28 -7 10 -13 -11 -4 -25 -3 -32 2 -7 6 -20 5 -34 -2 -15 -8 -19 -9
-15 -1 4 6 -3 16 -16 21 -19 9 -16 9 17 5 22 -3 54 -8 70 -12z m-715 -90 c-1
-16 -49 -63 -65 -63 -11 0 -15 10 -15 35 0 27 6 37 27 48 22 12 29 12 40 2 7
-8 13 -17 13 -22z m360 7 c0 -5 -7 -7 -15 -4 -8 4 -12 10 -9 15 6 11 24 2 24
-11z m-460 -22 c0 -13 -10 -39 -21 -58 -20 -32 -23 -33 -30 -15 -4 11 -8 37
-8 58 -1 35 1 37 29 37 24 0 30 -4 30 -22z m-1256 -20 c4 4 6 2 4 -5 -1 -6 12
-25 31 -42 19 -17 30 -31 25 -31 -5 0 -25 16 -44 35 -19 19 -38 35 -42 35 -4
0 -8 5 -8 11 0 8 4 9 13 0 8 -6 17 -7 21 -3z m136 -138 c0 -5 -2 -10 -4 -10
-3 0 -8 5 -11 10 -3 6 -1 10 4 10 6 0 11 -4 11 -10z m630 -40 c0 -5 -2 -10 -4
-10 -3 0 -8 5 -11 10 -3 6 -1 10 4 10 6 0 11 -4 11 -10z m74 -15 c3 -8 1 -15
-4 -15 -6 0 -10 7 -10 15 0 8 2 15 4 15 2 0 6 -7 10 -15z m356 -26 c0 -6 -4
-7 -10 -4 -5 3 -10 11 -10 16 0 6 5 7 10 4 6 -3 10 -11 10 -16z m-50 -23 c0
-19 -25 -37 -43 -31 -24 10 -9 45 19 45 14 0 24 -6 24 -14z m62 -13 c-6 -3 -9
-10 -6 -15 4 -7 2 -8 -5 -4 -9 6 -9 11 0 22 6 8 15 12 18 8 3 -4 0 -9 -7 -11z
m-137 -43 c3 -5 2 -10 -4 -10 -5 0 -13 5 -16 10 -3 6 -2 10 4 10 5 0 13 -4 16
-10z m95 -5 c0 -9 -9 -15 -22 -15 -21 0 -21 0 -2 15 24 18 24 18 24 0z m-805
-85 c10 -11 16 -20 13 -20 -3 0 -13 9 -23 20 -10 11 -16 20 -13 20 3 0 13 -9
23 -20z m765 -180 c0 -5 -5 -10 -11 -10 -5 0 -7 5 -4 10 3 6 8 10 11 10 2 0 4
-4 4 -10z m56 -15 c1 -8 -2 -13 -7 -9 -5 3 -9 12 -9 21 0 19 13 9 16 -12z m46
-3 c-6 -2 -9 -9 -6 -17 3 -8 1 -22 -5 -32 -9 -15 -10 -13 -5 10 4 18 2 27 -6
27 -9 0 -7 7 6 21 13 14 20 17 23 8 2 -7 -1 -15 -7 -17z m-367 -12 c4 -6 -1
-7 -11 -3 -13 5 -15 3 -9 -7 5 -9 4 -11 -4 -6 -6 4 -9 12 -6 17 8 12 22 12 30
-1z m118 -40 c-6 -7 -23 23 -23 40 0 8 6 4 13 -10 8 -14 12 -27 10 -30z m72
32 c-3 -3 -11 0 -18 7 -9 10 -8 11 6 5 10 -3 15 -9 12 -12z m201 -9 c-10 -10
-19 5 -10 18 6 11 8 11 12 0 2 -7 1 -15 -2 -18z m-242 -5 c-3 -5 -12 -4 -20 3
-19 16 -18 18 6 12 11 -3 17 -9 14 -15z m-68 -3 c-3 -8 -1 -15 5 -15 6 0 7 -5
3 -11 -10 -16 -28 6 -21 25 4 9 9 16 13 16 3 0 4 -7 0 -15z m340 -21 c-3 -9
-6 -18 -6 -20 0 -3 -6 1 -14 8 -10 9 -11 15 -2 20 19 13 28 9 22 -8z m-111 -4
c3 -5 1 -10 -4 -10 -6 0 -11 5 -11 10 0 6 2 10 4 10 3 0 8 -4 11 -10z m149
-46 c7 -30 6 -31 -24 -26 -33 5 -39 16 -14 26 8 3 12 2 9 -4 -3 -6 -1 -10 4
-10 14 0 14 37 1 45 -6 4 -7 11 -4 17 8 13 19 -5 28 -48z m-296 21 c0 -14 -4
-28 -9 -31 -14 -8 -11 -36 4 -28 9 5 9 4 0 -6 -9 -10 -18 -11 -35 -2 -17 8
-18 11 -7 11 19 1 35 34 20 39 -6 2 -11 8 -11 13 0 6 5 7 10 4 6 -3 13 1 16 9
9 22 12 20 12 -9z m-101 -7 c-3 -8 -6 -5 -6 6 -1 11 2 17 5 13 3 -3 4 -12 1
-19z m315 7 c4 -5 8 -14 8 -20 -1 -5 -5 -2 -11 9 -9 15 -13 16 -20 5 -5 -8 -9
-18 -9 -24 0 -5 5 -3 10 5 8 13 10 12 10 -2 0 -11 -7 -18 -17 -18 -13 0 -18 9
-19 29 -1 24 3 29 20 28 12 0 24 -6 28 -12z m-54 -13 c2 -7 -3 -12 -12 -12 -9
0 -16 7 -16 16 0 17 22 14 28 -4z m-238 -42 c0 -5 -2 -10 -4 -10 -3 0 -8 5
-11 10 -3 6 -1 10 4 10 6 0 11 -4 11 -10z m-9 -25 c5 4 9 2 9 -4 0 -5 3 -16 6
-25 4 -11 1 -16 -10 -16 -18 0 -19 -2 -10 -24 7 -17 34 -10 34 9 0 8 9 13 21
12 18 -1 19 -2 4 -14 -17 -12 -13 -33 6 -33 6 0 8 4 4 9 -3 5 0 13 6 16 7 5
10 1 7 -11 -2 -10 -14 -21 -28 -24 -24 -6 -24 -7 -3 -14 11 -4 24 -14 27 -22
4 -11 2 -15 -8 -11 -8 3 -17 1 -20 -6 -2 -7 -5 -2 -5 10 -1 12 -6 25 -11 28
-8 5 -7 11 1 21 14 17 -2 19 -19 2 -9 -9 -14 -5 -22 18 -11 32 -10 51 3 46 5
-1 7 3 4 10 -2 7 -10 12 -16 11 -6 -2 -11 7 -11 20 1 20 2 20 11 4 6 -9 14
-15 20 -12z m369 15 c0 -5 7 -10 15 -10 26 0 16 -20 -15 -34 -17 -7 -27 -15
-23 -19 3 -4 2 -7 -4 -7 -6 0 -14 7 -17 16 -8 20 -8 29 1 21 3 -4 12 -2 20 4
10 9 10 15 2 25 -9 11 -8 14 5 14 9 0 16 -4 16 -10z m737 -22 c-3 -8 -6 -5 -6
6 -1 11 2 17 5 13 3 -3 4 -12 1 -19z m-1057 -10 c0 -18 -2 -20 -9 -8 -6 8 -7
18 -5 22 9 14 14 9 14 -14z m1129 10 c0 -7 -4 -22 -9 -33 -7 -17 -9 -15 -9 13
-1 17 4 32 9 32 6 0 10 -6 9 -12z m-84 -27 c-8 -7 -56 10 -50 18 3 5 16 4 29
-2 14 -7 23 -14 21 -16z m-1015 9 c0 -5 -4 -10 -10 -10 -5 0 -10 5 -10 10 0 6
5 10 10 10 6 0 10 -4 10 -10z m1056 -17 c-10 -10 -19 5 -10 18 6 11 8 11 12 0
2 -7 1 -15 -2 -18z m154 -3 c0 -16 -4 -30 -8 -30 -5 0 -8 10 -7 23 1 12 -5 25
-14 29 -12 5 -11 7 7 7 18 1 22 -4 22 -29z m-83 13 c-4 -3 -2 -12 4 -20 8 -9
8 -13 1 -13 -6 0 -14 5 -17 10 -6 10 2 30 12 30 4 0 3 -3 0 -7z m49 -23 c0
-21 -11 -26 -21 -10 -7 11 2 30 13 30 4 0 8 -9 8 -20z m78 -29 c-6 -6 -11 1
-18 29 l-7 25 15 -25 c8 -14 12 -27 10 -29z m-1111 9 c3 -11 1 -23 -4 -26 -5
-3 -9 6 -9 20 0 31 6 34 13 6z m177 -30 c0 -5 -4 -10 -10 -10 -5 0 -10 5 -10
10 0 6 5 10 10 10 6 0 10 -4 10 -10z m-3 -66 c-3 -3 -12 -4 -19 -1 -8 3 -5 6
6 6 11 1 17 -2 13 -5z m-330 -60 c-3 -3 -12 -4 -19 -1 -8 3 -5 6 6 6 11 1 17
-2 13 -5z"/>
<path d="M1880 3299 c0 -5 5 -7 10 -4 6 3 10 8 10 11 0 2 -4 4 -10 4 -5 0 -10
-5 -10 -11z"/>
<path d="M2450 3180 c0 -5 5 -10 10 -10 6 0 10 5 10 10 0 6 -4 10 -10 10 -5 0
-10 -4 -10 -10z"/>
<path d="M2648 2733 c7 -3 16 -2 19 1 4 3 -2 6 -13 5 -11 0 -14 -3 -6 -6z"/>
<path d="M1745 2480 c-3 -5 -1 -10 4 -10 6 0 11 5 11 10 0 6 -2 10 -4 10 -3 0
-8 -4 -11 -10z"/>
<path d="M1670 2430 c0 -5 7 -7 15 -4 8 4 15 8 15 10 0 2 -7 4 -15 4 -8 0 -15
-4 -15 -10z"/>
<path d="M1690 2400 c0 -5 5 -10 10 -10 6 0 10 5 10 10 0 6 -4 10 -10 10 -5 0
-10 -4 -10 -10z"/>
<path d="M2090 2755 c-7 -8 -22 -15 -34 -15 -12 0 -31 -6 -42 -14 -11 -8 -43
-16 -70 -19 l-49 -3 52 -2 c28 -1 55 3 58 9 4 6 14 8 22 5 9 -4 11 -2 7 6 -5
8 -2 9 9 5 10 -4 27 3 44 18 16 13 25 25 22 25 -4 0 -12 -7 -19 -15z"/>
<path d="M2785 2450 c-3 -5 -1 -10 4 -10 6 0 11 5 11 10 0 6 -2 10 -4 10 -3 0
-8 -4 -11 -10z"/>
<path d="M2408 2303 c7 -3 16 -2 19 1 4 3 -2 6 -13 5 -11 0 -14 -3 -6 -6z"/>
<path d="M0 3096 c0 -9 5 -16 10 -16 6 0 10 4 10 9 0 6 -4 13 -10 16 -5 3 -10
-1 -10 -9z"/>
<path d="M0 3025 c0 -20 5 -25 25 -25 30 0 32 11 7 33 -25 23 -32 21 -32 -8z"/>
<path d="M1325 2730 c-8 -13 15 -13 35 0 12 8 11 10 -7 10 -12 0 -25 -4 -28
-10z"/>
<path d="M1551 2144 c0 -11 3 -14 6 -6 3 7 2 16 -1 19 -3 4 -6 -2 -5 -13z"/>
<path d="M3640 1929 c-15 -27 -3 -77 21 -92 10 -6 19 -17 19 -24 0 -8 14 -13
39 -13 32 0 44 -6 75 -40 29 -32 43 -40 71 -40 38 0 42 6 21 35 -12 16 -16 17
-30 6 -14 -12 -16 -7 -16 56 0 40 5 74 12 81 14 14 10 15 -49 12 -25 -1 -43 3
-43 9 0 6 -18 11 -39 11 -22 0 -43 5 -46 10 -10 16 -23 12 -35 -11z"/>
<path d="M2757 1808 c33 -36 63 -78 63 -90 0 -4 -8 -5 -17 -2 -14 4 -13 1 5
-14 12 -11 22 -25 22 -30 0 -6 4 -12 8 -14 4 -1 21 -25 37 -53 15 -27 30 -44
33 -37 2 7 -4 23 -14 34 -17 19 -17 21 -2 15 26 -9 17 35 -9 48 -16 9 -20 19
-18 53 1 23 -1 39 -6 37 -4 -3 -28 15 -53 40 -54 54 -99 65 -49 13z"/>
<path d="M1771 1794 c0 -11 3 -14 6 -6 3 7 2 16 -1 19 -3 4 -6 -2 -5 -13z"/>
<path d="M1622 1779 c-17 -27 -11 -33 14 -15 13 10 16 18 9 25 -7 7 -15 4 -23
-10z"/>
<path d="M1805 1709 c-11 -17 1 -21 15 -4 8 9 8 15 2 15 -6 0 -14 -5 -17 -11z"/>
<path d="M1860 1640 c0 -5 7 -10 16 -10 8 0 12 5 9 10 -3 6 -10 10 -16 10 -5
0 -9 -4 -9 -10z"/>
<path d="M1910 1620 c0 -5 7 -10 15 -10 8 0 15 5 15 10 0 6 -7 10 -15 10 -8 0
-15 -4 -15 -10z"/>
<path d="M1980 1611 c0 -12 7 -24 15 -28 20 -7 33 6 16 16 -7 5 -12 12 -11 17
1 5 -3 10 -9 12 -6 2 -11 -6 -11 -17z"/>
<path d="M1920 1590 c0 -5 7 -10 16 -10 8 0 12 5 9 10 -3 6 -10 10 -16 10 -5
0 -9 -4 -9 -10z"/>
<path d="M2928 1575 c-4 -4 -4 -14 -1 -23 4 -10 2 -13 -5 -8 -8 5 -10 2 -6 -8
3 -9 12 -16 20 -16 8 0 11 -6 7 -17 -4 -13 1 -11 15 6 27 30 28 45 3 31 -22
-11 -42 -14 -25 -2 6 4 8 15 5 25 -4 10 -10 15 -13 12z"/>
<path d="M2000 1531 c0 -18 34 -21 49 -4 15 16 15 16 -3 2 -15 -11 -20 -11
-23 -1 -5 14 -23 17 -23 3z"/>
<path d="M1990 1501 c0 -6 4 -13 10 -16 6 -3 7 1 4 9 -7 18 -14 21 -14 7z"/>
<path d="M2907 1493 c-4 -3 -7 -18 -7 -31 0 -32 15 -19 15 14 1 27 1 27 -8 17z"/>
<path d="M3550 1490 c0 -5 -7 -10 -15 -10 -8 0 -15 -6 -15 -13 0 -7 -9 -18
-20 -25 -21 -13 -27 -47 -10 -57 6 -4 5 -13 -2 -25 -17 -27 2 -44 51 -45 21 0
37 -3 34 -7 -2 -5 7 -8 20 -8 14 0 40 -3 58 -6 26 -4 30 -3 19 5 -12 9 -10 11
10 11 23 1 24 2 8 14 -10 7 -18 19 -18 26 0 10 3 10 14 1 11 -10 16 -8 21 9 7
23 30 21 72 -6 12 -8 31 -14 43 -14 11 0 20 -4 20 -10 0 -5 18 -10 39 -10 22
0 41 -5 44 -12 2 -8 8 -9 13 -4 5 5 4 11 -3 13 -7 3 -13 21 -13 41 0 33 -4 39
-37 54 -32 13 -39 14 -41 2 -2 -10 -19 -14 -53 -14 -42 0 -54 4 -74 28 -21 23
-26 25 -35 12 -9 -13 -14 -11 -35 13 -14 16 -34 27 -50 27 -14 0 -25 5 -25 10
0 6 -4 10 -10 10 -5 0 -10 -4 -10 -10z m57 -152 c-3 -8 -6 -5 -6 6 -1 11 2 17
5 13 3 -3 4 -12 1 -19z"/>
<path d="M2065 1440 c-3 -5 1 -10 9 -10 9 0 16 5 16 10 0 6 -4 10 -9 10 -6 0
-13 -4 -16 -10z"/>
<path d="M3340 1325 c0 -5 5 -17 10 -25 5 -8 10 -10 10 -5 0 6 -5 17 -10 25
-5 8 -10 11 -10 5z"/>
<path d="M3390 1310 c0 -5 7 -10 15 -10 8 0 15 5 15 10 0 6 -7 10 -15 10 -8 0
-15 -4 -15 -10z"/>
<path d="M1816 1284 c4 -10 12 -26 18 -34 14 -19 35 -56 55 -96 18 -36 82 -94
103 -94 8 0 23 7 34 16 10 8 14 13 8 10 -11 -6 -28 7 -93 67 -19 18 -32 26
-27 20 4 -7 2 -13 -3 -13 -6 0 -11 4 -11 9 0 5 -15 30 -34 54 -19 25 -32 47
-30 50 2 2 -2 10 -11 17 -13 11 -14 10 -9 -6z"/>
<path d="M3310 1251 c0 -6 9 -9 20 -8 11 1 20 5 20 9 0 4 -9 8 -20 8 -11 0
-20 -4 -20 -9z"/>
<path d="M3310 1210 c-13 -8 -13 -10 2 -10 9 0 20 5 23 10 8 13 -5 13 -25 0z"/>
<path d="M2052 1117 c19 -18 34 -23 54 -19 27 5 27 5 -13 17 -22 7 -46 15 -54
19 -8 4 -2 -3 13 -17z"/>
<path d="M3714 1116 c-3 -8 -12 -12 -20 -9 -8 3 -14 0 -14 -6 0 -12 39 -15 56
-3 9 5 8 11 -2 20 -12 11 -15 10 -20 -2z"/>
<path d="M2270 1109 c0 -5 5 -7 10 -4 6 3 10 8 10 11 0 2 -4 4 -10 4 -5 0 -10
-5 -10 -11z"/>
<path d="M1570 1087 c0 -3 16 -13 37 -22 30 -15 34 -19 19 -27 -21 -12 -11
-28 17 -28 12 0 34 -6 48 -14 14 -7 41 -16 60 -20 29 -5 40 -1 69 25 19 17 29
28 22 24 -12 -6 -69 8 -105 27 -10 5 -22 6 -27 3 -5 -3 -23 1 -39 10 -29 15
-101 30 -101 22z"/>
<path d="M3660 1077 c0 -7 12 -14 27 -15 26 -2 26 -1 7 13 -24 18 -34 19 -34
2z"/>
<path d="M3797 1043 c-12 -11 -8 -23 8 -23 8 0 15 7 15 15 0 16 -12 20 -23 8z"/>
<path d="M3708 1018 c-19 -19 -13 -24 11 -9 7 5 12 13 10 18 -2 5 -12 1 -21
-9z"/>
<path d="M3755 1030 c3 -5 8 -10 11 -10 2 0 4 5 4 10 0 6 -5 10 -11 10 -5 0
-7 -4 -4 -10z"/>
<path d="M2148 1013 c-21 -5 -23 -19 -4 -26 14 -5 36 10 36 25 0 8 -4 9 -32 1z"/>
<path d="M3740 985 c7 -8 18 -15 25 -15 7 0 18 -7 26 -16 7 -8 21 -13 30 -11
10 3 23 -1 30 -9 6 -8 8 -14 3 -14 -11 0 40 -31 79 -48 18 -8 26 -8 22 -1 -4
5 -19 15 -33 20 -22 8 -24 12 -12 20 11 8 9 9 -8 4 -12 -4 -21 -3 -20 2 4 15
-22 53 -37 53 -8 0 -15 5 -15 10 0 14 -28 12 -32 -2 -3 -8 -11 -7 -28 5 -30
21 -47 22 -30 2z m90 -25 c0 -5 -4 -10 -9 -10 -6 0 -13 5 -16 10 -3 6 1 10 9
10 9 0 16 -4 16 -10z"/>
<path d="M4096 746 c10 -8 21 -12 24 -10 5 6 -21 24 -34 24 -6 0 -1 -6 10 -14z"/>
<path d="M4142 746 c7 -8 15 -12 17 -11 5 6 -10 25 -20 25 -5 0 -4 -6 3 -14z"/>
<path d="M2304 257 c1 -16 8 -23 21 -24 11 -1 14 1 8 4 -7 3 -13 11 -13 18 0
8 -4 16 -9 19 -5 3 -8 -4 -7 -17z"/>
<path d="M2345 199 c-9 -14 -2 -20 14 -10 8 6 9 11 3 15 -6 3 -14 1 -17 -5z"/>
<path d="M2302 60 c-13 -11 -18 -21 -12 -25 5 -3 10 -1 10 6 0 6 8 9 19 6 14
-3 17 0 14 14 -3 11 -6 19 -7 19 0 -1 -11 -9 -24 -20z"/>
</g>
</svg>
